<svg width="280" height="280" viewBox="0 0 280 280" fill="none" xmlns="http://www.w3.org/2000/svg">
<path d="M226.018 106.097C226.018 106.097 197.09 130.481 227.891 184.955C255.245 233.333 189.877 252.421 162.148 246.207C126.227 238.157 106.885 191.333 78.8017 205.336C50.7188 219.339 25.3611 152.166 66.3049 128.674C117.238 99.4508 85.6809 80.9774 90.8507 58.7663C94.5607 42.8253 141.186 19.1755 165.062 48.0315C185.154 72.3132 195.619 64.0566 205.228 61.1146C219.088 56.8712 248.313 81.4117 226.018 106.097Z" fill="#DEE9FF"/>
<path d="M196.757 70.3357L134.336 60.1072C129.758 59.3571 125.439 62.4602 124.688 67.0383L103.098 198.796C102.348 203.374 105.451 207.694 110.029 208.444L172.45 218.672C177.028 219.422 181.347 216.319 182.097 211.741L203.688 79.9834C204.438 75.4053 201.335 71.0858 196.757 70.3357Z" fill="#0E84E5"/>
<path d="M194.704 74.0491L135.096 64.2815C132.044 63.7814 129.164 65.8502 128.664 68.9023L107.461 198.298C106.961 201.351 109.029 204.23 112.082 204.73L171.689 214.498C174.741 214.998 177.621 212.929 178.121 209.877L199.324 80.4809C199.824 77.4288 197.756 74.5492 194.704 74.0491Z" fill="#699CFF"/>
<path d="M230.227 60.0536C225.693 58.1592 222.488 59.9765 221.73 61.7903C221.183 63.1005 222.038 64.1681 222.945 64.5471C224.759 65.3048 225.101 62.4096 228.526 63.8409C230.206 64.5425 231.241 65.8429 230.595 67.3881C229.837 69.2021 227.521 69.4576 226.02 69.935C224.695 70.3679 222.843 71.2119 221.636 74.1007C220.907 75.8473 221.166 76.5476 222.543 77.123C224.189 77.8105 224.833 77.2119 225.1 76.5736C225.83 74.8269 226.285 73.8331 228.735 73.1606C229.937 72.8341 233.746 71.7425 235.065 68.5851C236.385 65.4277 234.526 61.8498 230.227 60.0536Z" fill="#0E84E5"/>
<path d="M221.608 79.4548C220.924 79.1781 220.158 79.1823 219.477 79.4665C218.796 79.7507 218.255 80.292 217.97 80.9729C217.686 81.6538 217.681 82.4194 217.958 83.1037C218.234 83.7879 218.769 84.3356 219.447 84.6278C220.132 84.9097 220.901 84.9089 221.585 84.6256C222.27 84.3423 222.814 83.7996 223.1 83.1161C223.385 82.4325 223.389 81.6637 223.109 80.9777C222.83 80.2916 222.29 79.7441 221.608 79.4548Z" fill="#0E84E5"/>
<path d="M144.943 120.276C145.352 117.757 144.625 115.543 143.319 115.331C142.013 115.119 140.622 116.989 140.213 119.508C139.804 122.027 140.531 124.241 141.837 124.453C143.143 124.665 144.534 122.795 144.943 120.276Z" fill="white"/>
<path d="M172.179 124.747C172.592 122.203 171.869 119.969 170.562 119.756C169.256 119.544 167.862 121.435 167.449 123.978C167.036 126.522 167.76 128.757 169.066 128.969C170.372 129.181 171.766 127.291 172.179 124.747Z" fill="white"/>
<path d="M161.061 146.677C160.966 146.677 160.872 146.657 160.785 146.62C160.698 146.583 160.619 146.528 160.554 146.459L159.569 145.422C157.989 143.763 155.907 142.669 153.644 142.308C151.382 141.948 149.063 142.34 147.045 143.426L145.787 144.106C145.706 144.149 145.617 144.177 145.526 144.186C145.434 144.196 145.342 144.187 145.254 144.161C145.166 144.134 145.084 144.091 145.012 144.033C144.941 143.975 144.882 143.903 144.838 143.822C144.794 143.742 144.767 143.653 144.758 143.561C144.748 143.47 144.757 143.377 144.783 143.289C144.81 143.201 144.853 143.119 144.911 143.048C144.969 142.977 145.041 142.917 145.121 142.874L146.38 142.194C148.668 140.963 151.298 140.517 153.864 140.926C156.431 141.335 158.791 142.576 160.584 144.457L161.569 145.494C161.663 145.594 161.726 145.718 161.75 145.853C161.774 145.988 161.758 146.127 161.704 146.253C161.65 146.378 161.561 146.486 161.447 146.561C161.332 146.636 161.198 146.676 161.061 146.676V146.677Z" fill="white"/>
</svg>

